<?xml version="1.0" ?><!DOCTYPE svg  PUBLIC '-//W3C//DTD SVG 1.1//EN'  'http://www.w3.org/Graphics/SVG/1.1/DTD/svg11.dtd'><svg enable-background="new 0 0 512 512" height="512px" id="Layer_1" version="1.1" viewBox="0 0 512 512" width="512px" xml:space="preserve" xmlns="http://www.w3.org/2000/svg" xmlns:xlink="http://www.w3.org/1999/xlink"><g><linearGradient gradientUnits="userSpaceOnUse" id="SVGID_1_" x1="77.6992" x2="433.8809" y1="256.3398" y2="256.3398"><stop offset="0" style="stop-color:#D9D9D9"/><stop offset="0.6816" style="stop-color:#DCDCDC"/><stop offset="1" style="stop-color:#E1E1E1"/></linearGradient><circle cx="255.79" cy="256.34" fill="url(#SVGID_1_)" r="178.091"/><path d="M258.53,82.531c-43.154,0-82.661,15.478-113.217,41.132c27.729-18.225,60.97-28.847,96.715-28.847    c96.89,0,175.434,77.97,175.434,174.146c0,53.34-24.166,101.07-62.213,133.014c47.429-31.173,78.716-84.604,78.716-145.3    C433.965,160.5,355.421,82.531,258.53,82.531z" opacity="0.1"/><path d="M256,37.833c-120.398,0-218,97.602-218,218c0,120.397,97.602,218,218,218c120.397,0,218-97.603,218-218    C474,135.435,376.397,37.833,256,37.833z M255.789,426.265c-93.938,0-170.09-76.152-170.09-170.092    c0-93.938,76.152-170.092,170.09-170.092c93.939,0,170.092,76.154,170.092,170.092    C425.881,350.112,349.729,426.265,255.789,426.265z" fill="#474747"/><path d="M218.607,259.833c0-17.772,14.41-32.182,32.184-32.182c17.77,0,32.179,14.409,32.179,32.182    c0,17.774-14.409,32.182-32.179,32.182C233.018,292.015,218.607,277.607,218.607,259.833z" opacity="0.1"/><path d="M284.192,268.52l-15.326,15.325l-108.258-108.26c-4.322-4.322-4.485-11.168-0.164-15.489    c4.32-4.321,11.167-4.158,15.488,0.164L284.192,268.52z" fill="#2D3E50"/><path d="M251,265v-18h139.185c4.76,0,8.613,4.158,8.615,9c-0.002,4.844-3.854,9-8.615,9H251z" fill="#2D3E50"/><path d="M291.522,212.058L153.983,349.596c-2.323,2.324-2.323,6.1,0,8.422c2.323,2.322,6.098,2.322,8.421,0    l137.538-137.539L291.522,212.058z" fill="#77B89A"/><circle cx="255.789" cy="255.833" fill="#2D3E50" r="25.037" stroke="#FFFFFF" stroke-miterlimit="10" stroke-width="14"/></g></svg>